# xmcd CD database file
#
# Track frame offsets:
#	150
#	10857
#	22665
#	32862
#	44992
#	56907
#	66675
#	79971
#	91513
#	103476
#	113754
#	123775
#	134091
#	146220
#	158942
#	170171
#
# Disc length: 2419 seconds
#
# Revision: 1
# Processed by: cddbd v1.5.2PL0 Copyright (c) Steve Scherf et al.
# Submitted via: jetAudio 7
#
DISCID=ef097110
DTITLE=Chet Atkins - The Great Chet Atkins Disc 3
DYEAR=2005
DGENRE=Country
TTITLE0=Crazy Rhythm
TTITLE1=Jitterbug Waltz
TTITLE2=Hybrid Corn
TTITLE3=My Crazy Heart
TTITLE4=You're Always Brand New
TTITLE5=Mountain Melody
TTITLE6=Under The Hickory Nut Tree
TTITLE7=Birth Of The Blues
TTITLE8=Indian Love Call
TTITLE9=Music In My Heart
TTITLE10=Confusin'
TTITLE11=Main Street Breakdown
TTITLE12=Centipede Boogie
TTITLE13=Barber Shop Rag
TTITLE14=Galloping On The Guitar
TTITLE15=I've Been Working On The Guitar
EXTD=
EXTT0=
EXTT1=
EXTT2=
EXTT3=
EXTT4=
EXTT5=
EXTT6=
EXTT7=
EXTT8=
EXTT9=
EXTT10=
EXTT11=
EXTT12=
EXTT13=
EXTT14=
EXTT15=
PLAYORDER=
